<svg xmlns="http://www.w3.org/2000/svg" xmlns:xlink="http://www.w3.org/1999/xlink" width="470" height="468" id="video"><defs><filter id="a" width="111.8%" height="111.9%" x="-5.9%" y="-3.9%" filterUnits="objectBoundingBox"><feOffset dy="5" in="SourceAlpha" result="shadowOffsetOuter1"></feOffset><feGaussianBlur in="shadowOffsetOuter1" result="shadowBlurOuter1" stdDeviation="4"></feGaussianBlur><feColorMatrix in="shadowBlurOuter1" result="shadowMatrixOuter1" values="0 0 0 0 0 0 0 0 0 0 0 0 0 0 0 0 0 0 0.078125 0"></feColorMatrix><feOffset dy="4" in="SourceAlpha" result="shadowOffsetOuter2"></feOffset><feGaussianBlur in="shadowOffsetOuter2" result="shadowBlurOuter2" stdDeviation="5.5"></feGaussianBlur><feColorMatrix in="shadowBlurOuter2" result="shadowMatrixOuter2" values="0 0 0 0 0 0 0 0 0 0 0 0 0 0 0 0 0 0 0.210824275 0"></feColorMatrix><feMerge><feMergeNode in="shadowMatrixOuter1"></feMergeNode><feMergeNode in="shadowMatrixOuter2"></feMergeNode></feMerge></filter><path id="b" d="M9.635 132.808C24.782 59.782 71.388 19.109 144.085 6.822c53.74-9.081 107.5-9.196 161.15.255 74.852 13.185 119.85 56.23 134.185 130.36 11.075 57.29 11.249 115.191-.174 172.427-15.324 72.52-63.132 117.285-135.561 129.527-53.74 9.08-107.5 9.195-161.15-.255-74.852-13.186-120.05-58.38-134.384-132.509-11.64-57.668-10.52-115.935 1.484-173.82z"></path></defs><g fill="none" fill-rule="evenodd"><g transform="translate(11 7)"><use fill="#000" filter="url(#a)" xlink:href="#b"></use><use fill="#987EFC" xlink:href="#b"></use></g><path fill="#FFF" d="M351.833 198.667h19l-.116 103.025c-.029 24.755-20.104 44.808-44.859 44.808H154.333v-19h169.013c15.733 0 28.487-12.754 28.487-28.486V198.667zm-145.655-63.92a12.785 12.785 0 0 0-8.324-3.08h-77.187v214.667H100V124.67c0-7.55 6.12-13.67 13.669-13.67h90.587a15.8 15.8 0 0 1 10.266 3.79l32.354 27.65a14.844 14.844 0 0 0 9.643 3.56H368v20.667H249.241c-3.518 0-6.921-1.25-9.603-3.525l-33.46-28.394zm-2.678 95.81H220v36.299a1.677 1.677 0 0 0 2.516 1.452l41.676-24.061c1.662-.96 1.662-3.358 0-4.318l-63.587-36.712 8.25-14.29 67.399 39.034a16.396 16.396 0 0 1-.018 28.386l-54.068 31.215a8.646 8.646 0 0 1-4.67 1.152l-1.173-.047c-7.083 0-12.825-5.742-12.825-12.824v-45.286z"></path></g></svg>